# xmcd
#
# Track frame offsets:
#	150
#	15303
#	29452
#	45202
#	62992
#	74329
#	88938
#	107839
#	122164
#	136276
#
# Disc length: 2044 seconds
#
# Revision: 1
# Processed by: cddbd v1.5.2PL0 Copyright (c) Steve Scherf et al.
# Submitted via: audiograbber 1.83.01
#
DISCID=8507fa0a
DTITLE=Katie Melua/Nora Jones - Back to Back
DYEAR=2009
DGENRE=Blues, Pop-Folk
TTITLE0=Come Away With Me
TTITLE1=Don't Know Why
TTITLE2=Not Too Late
TTITLE3=Rosie's Lullaby
TTITLE4=Turn Me On
TTITLE5=9 Million Bicycles
TTITLE6=Closest Thing To Crazy
TTITLE7=If The Lights Go Out
TTITLE8=Mary Pickford (Used To Eat Roses)
TTITLE9=What I Miss About You
EXTD=
EXTT0=
EXTT1=
EXTT2=
EXTT3=
EXTT4=
EXTT5=
EXTT6=
EXTT7=
EXTT8=
EXTT9=
PLAYORDER=
